# xmcd
#
# Track frame offsets:
#	150
#	13926
#	30891
#	43444
#	55893
#	69469
#	79891
#	94564
#	107607
#	118450
#	129946
#	141779
#	148950
#	155373
#
# Disc length: 2216 seconds
# Revision: 0
# Processed by: cddbd v1.5.2PL0 Copyright (c) Steve Scherf et al.
# Submitted via: dBpowerAMP V12.0
#
DISCID=c408a60e
DTITLE=Groan Box Boys - Gran Bwa
DYEAR=2008
DGENRE=Blues
TTITLE0=Pig Man's Dog
TTITLE1=Bogeyman
TTITLE2=Shards Of The Journey (A Talisman)
TTITLE3=Dam Door
TTITLE4=Where Are You Now_
TTITLE5=Poison At The Tolbooth
TTITLE6=Beneath A Dark Veil Of Needles
TTITLE7=Deer Bone In The Mansion
TTITLE8=Chicken Foot (Put Em Away)
TTITLE9=Rabbit On A Hill
TTITLE10=Mountains Are Creeping (Yew)
TTITLE11=Fire Behind Me
TTITLE12=Staging Day
TTITLE13=N.C.
EXTD=
EXTT0=
EXTT1=
EXTT2=
EXTT3=
EXTT4=
EXTT5=
EXTT6=
EXTT7=
EXTT8=
EXTT9=
EXTT10=
EXTT11=
EXTT12=
EXTT13=
PLAYORDER=
